<svg xmlns="http://www.w3.org/2000/svg" width="64" height="64" viewBox="0 0 64 64" fill="none">
  <rect width="64" height="64" rx="12" fill="#635B86"/>
  <path d="M18 16H28C31.3137 16 34 18.6863 34 22V22C34 25.3137 31.3137 28 28 28H18V16Z" fill="#FCD1B4"/>
  <path d="M18 32H28C31.3137 32 34 34.6863 34 38V38C34 41.3137 31.3137 44 28 44H18V32Z" fill="#C17C94"/>
  <path d="M38 16H46C49.3137 16 52 18.6863 52 22V38C52 41.3137 49.3137 44 46 44H38V16Z" fill="#7295A5"/>
  <path d="M22 20.5C22 20.2239 22.2239 20 22.5 20H26C26.2761 20 26.5 20.2239 26.5 20.5V23.5C26.5 23.7761 26.2761 24 26 24H22.5C22.2239 24 22 23.7761 22 23.5V20.5Z" fill="white"/>
  <path d="M22 36.5C22 36.2239 22.2239 36 22.5 36H26C26.2761 36 26.5 36.2239 26.5 36.5V39.5C26.5 39.7761 26.2761 40 26 40H22.5C22.2239 40 22 39.7761 22 39.5V36.5Z" fill="white"/>
  <path d="M42 28.5C42 28.2239 42.2239 28 42.5 28H46C46.2761 28 46.5 28.2239 46.5 28.5V31.5C46.5 31.7761 46.2761 32 46 32H42.5C42.2239 32 42 31.7761 42 31.5V28.5Z" fill="white"/>
  <path d="M24 48H40" stroke="#FCD1B4" stroke-width="4" stroke-linecap="round"/>
</svg>